# xmcd
#
# Track frame offsets:
#	150
#	19005
#	35487
#	52344
#	67988
#	85499
#	103771
#	118762
#	132748
#	150149
#	160483
#	179851
#	194131
#	213751
#	228004
#	246332
#	265056
#	280312
#	300849
#	318568
#	336272
#
# Disc length: 4727 seconds
#
# Revision: 2
# Processed by: cddbd v1.5.2PL0 Copyright (c) Steve Scherf et al.
# Submitted via: audiograbber 1.83.01
#
DISCID=38127515
DTITLE=Various Artist - CDX Volume 393 - April 2006
DYEAR=2006
DGENRE=Country
TTITLE0=Mark Willis - Hank
TTITLE1=Rio Grand - Kill Me Now
TTITLE2=Ronnie Milsap - Local Girls
TTITLE3=Julie Roberts - Men And Mascara
TTITLE4=Miranda Lambert - New Strings (Radio Mix)
TTITLE5=Dixie Chicks - Not Ready To Make Nice
TTITLE6=Jamey Johnson - Rebelicious (Single Edit)
TTITLE7=Billy Dean - Swingin' For The Fence
TTITLE8=Van Zant - Things I Miss The Most
TTITLE9=Martina McBride - You Ain't Woman Enough
TTITLE10=David Frizzell - Confidentially
TTITLE11=Karen Taylor-Good - God's Refrigerator
TTITLE12=David Joseph - I'm Coming Home
TTITLE13=Kate Russell - Powerfull Stuff
TTITLE14=Lane Brody - That's Where Love Comes In
TTITLE15=Charlie Allen - That Was Then, This Is Now
TTITLE16=Derryl Perry - The Only Cure
TTITLE17=Daniel Smith - I'm Coming Home
TTITLE18=Shelby Downing - Listen To Your Heart
TTITLE19=Keith Cochran - Magic Quilt
TTITLE20=Wayne Warner - Things You Make My Heart Say (Yippi Yippi Kiyiya) (Danc
TTITLE20=e Trax)
EXTD=Corrected Numerous Typos
EXTT0=
EXTT1=
EXTT2=
EXTT3=
EXTT4=
EXTT5=
EXTT6=
EXTT7=
EXTT8=
EXTT9=
EXTT10=
EXTT11=
EXTT12=
EXTT13=
EXTT14=
EXTT15=
EXTT16=
EXTT17=
EXTT18=
EXTT19=
EXTT20=
PLAYORDER=
